<svg width="126" height="36" viewBox="0 0 126 36" fill="none" xmlns="http://www.w3.org/2000/svg">
<path d="M31.205 0H4.795C2.14679 0 0 2.14679 0 4.795V31.205C0 33.8532 2.14679 36 4.795 36H31.205C33.8532 36 36 33.8532 36 31.205V4.795C36 2.14679 33.8532 0 31.205 0Z" fill="#BA3737"/>
<path d="M24.7547 6.02417H23.6047C23.3467 8.27917 22.0787 9.50517 19.8767 9.75717V10.9052C22.1427 11.1672 23.3677 12.4332 23.6127 14.6392H24.7577C25.0087 12.3922 26.2577 11.1522 28.4997 10.8972V9.75117C26.2477 9.49117 25.0187 8.24717 24.7547 6.02417Z" fill="white"/>
<path d="M23.5798 22.6998V26.0178H14.4998C14.2046 26.0179 13.9122 25.9598 13.6394 25.8469C13.3666 25.734 13.1188 25.5684 12.91 25.3596C12.7012 25.1509 12.5356 24.903 12.4227 24.6302C12.3098 24.3574 12.2517 24.065 12.2518 23.7698V7.19976H15.5298C15.8481 7.19976 16.1533 7.07333 16.3784 6.84828C16.6034 6.62324 16.7298 6.31802 16.7298 5.99976H12.2298C10.9997 6.0061 9.82209 6.49923 8.95448 7.37134C8.08687 8.24345 7.59984 9.42359 7.59985 10.6538V30.0718H20.7298C21.7901 30.0709 22.8078 29.6545 23.5645 28.912C24.3213 28.1694 24.7569 27.1598 24.7778 26.0998V21.4998C24.4599 21.5003 24.1552 21.6269 23.9306 21.8519C23.706 22.0769 23.5798 22.3818 23.5798 22.6998Z" fill="white"/>
<g clip-path="url(#clip0_688_14378)">
<path d="M79.3754 28.6737H75.2718V26.0978H74.6986C74.3209 27.0421 74.0613 27.7616 73.2993 28.2696C72.5373 28.7776 71.5459 29.0249 70.324 29.0249C69.5274 29.0364 68.7354 28.9007 67.988 28.6246C67.3189 28.3737 66.7145 27.9758 66.2195 27.4604C65.7176 26.9234 65.3359 26.2858 65.0996 25.5899C64.8264 24.7854 64.6932 23.94 64.7059 23.0905V20.5203C64.7059 19.3972 65.1521 18.32 65.9463 17.5258C66.7404 16.7316 67.8176 16.2855 68.9407 16.2855V21.9943C68.9407 24.2258 69.9256 25.3412 71.8952 25.3406C72.9528 25.3406 73.7579 25.0328 74.3105 24.4171C74.8632 23.8015 75.1399 22.9548 75.1405 21.8772V12.6238H79.3754V28.6737Z" fill="white"/>
<path d="M87.4447 12.6218V15.1977H88.0112C88.3794 14.2865 88.6589 13.5708 89.4596 13.0514C90.2603 12.5321 91.2537 12.2725 92.45 12.2725C94.2358 12.2725 95.5965 12.7965 96.5319 13.8446C97.4673 14.8927 97.9356 16.377 97.9369 18.2976V28.6736H93.703V19.3013C93.703 18.1858 93.4628 17.3442 92.9825 16.7764C92.5022 16.2086 91.7576 15.9253 90.7485 15.9266C90.2957 15.9188 89.8459 16.0029 89.4266 16.174C89.0467 16.3335 88.7063 16.5742 88.4295 16.8793C88.1443 17.2006 87.9286 17.5773 87.7959 17.986C87.6457 18.4487 87.572 18.9328 87.5778 19.4193V28.6727H83.3411V16.7254C83.3411 15.6371 83.7734 14.5933 84.543 13.8237C85.3126 13.0542 86.3563 12.6218 87.4447 12.6218Z" fill="white"/>
<path d="M106.306 12.6218V28.6736H102.071V16.8586C102.071 16.3023 102.18 15.7514 102.393 15.2374C102.605 14.7234 102.917 14.2563 103.31 13.8629C103.704 13.4694 104.171 13.1573 104.685 12.9444C105.199 12.7314 105.749 12.6218 106.306 12.6218Z" fill="white"/>
<path d="M116.361 12.3603C116.887 12.358 117.411 12.4266 117.919 12.5643C118.399 12.6941 118.859 12.8899 119.286 13.1459C119.703 13.398 120.069 13.6483 120.407 14.0552C120.673 14.3753 120.821 14.7813 120.938 15.2534H121.482V12.6219H125.6V34.0001H121.351V26.214H120.805C120.369 27.078 120.026 27.7446 119.211 28.2148C118.396 28.685 117.417 28.9211 116.272 28.9211C115.336 28.9368 114.408 28.7402 113.558 28.346C112.76 27.9647 112.062 27.4013 111.521 26.7012C110.962 25.988 110.535 25.1174 110.24 24.0895C109.931 22.9615 109.782 21.7956 109.796 20.6261C109.781 19.4627 109.936 18.3034 110.254 17.1844C110.563 16.1608 111.001 15.2925 111.568 14.5793C112.12 13.8786 112.828 13.3159 113.635 12.9354C114.489 12.5425 115.42 12.3461 116.361 12.3603ZM117.744 25.385C118.271 25.3925 118.794 25.2805 119.272 25.0573C119.726 24.8402 120.122 24.5186 120.428 24.1188C120.762 23.674 121.009 23.1705 121.156 22.6344C121.334 21.9888 121.42 21.3212 121.41 20.6516C121.418 19.9854 121.333 19.3215 121.156 18.6791C121.009 18.1387 120.762 17.6305 120.428 17.1806C120.126 16.7793 119.732 16.4557 119.279 16.2364C118.803 16.0147 118.283 15.9046 117.758 15.9144C117.236 15.9061 116.719 16.0183 116.247 16.242C115.801 16.4613 115.413 16.7829 115.114 17.1806C114.785 17.6248 114.543 18.1271 114.4 18.6611C114.227 19.3075 114.144 19.9748 114.153 20.644C114.144 21.3179 114.227 21.9898 114.4 22.6411C114.541 23.1778 114.78 23.6837 115.106 24.1329C115.401 24.5319 115.79 24.852 116.239 25.0649C116.71 25.2831 117.225 25.3925 117.744 25.385Z" fill="white"/>
<path d="M64.7341 9.54183V10.6267C62.6219 10.8675 61.4379 12.0431 61.2018 14.16H60.1226C59.8912 12.0771 58.7345 10.8817 56.594 10.6343V9.54749C58.6713 9.30955 59.8714 8.15193 60.1141 6.02271H61.2009C61.4501 8.12171 62.6106 9.29633 64.7341 9.54183Z" fill="white"/>
<path d="M60.0915 21.7685V24.9015H51.5151C50.9525 24.901 50.4131 24.6771 50.0154 24.2791C49.6178 23.8811 49.3944 23.3415 49.3944 22.7789V7.13307H52.4905C52.791 7.13307 53.0792 7.01369 53.2917 6.8012C53.5042 6.58871 53.6236 6.30051 53.6236 6H49.3746C48.2125 6.005 47.0997 6.47021 46.2798 7.29381C45.4599 8.11741 44.9997 9.2323 45 10.3944V28.7293H57.3977C58.3992 28.7291 59.3607 28.3362 60.0758 27.635C60.7909 26.9338 61.2027 25.9802 61.2227 24.9789V20.6355C60.9225 20.636 60.6348 20.7556 60.4227 20.968C60.2106 21.1804 60.0915 21.4684 60.0915 21.7685Z" fill="white"/>
</g>
<defs>
<clipPath id="clip0_688_14378">
<rect width="80.6017" height="28" fill="white" transform="translate(45 6)"/>
</clipPath>
</defs>
</svg>
