<svg width="34" height="34" viewBox="0 0 34 34" fill="none" xmlns="http://www.w3.org/2000/svg">
<path d="M29.4714 0H4.52861C2.02753 0 0 2.02753 0 4.52861V29.4714C0 31.9725 2.02753 34 4.52861 34H29.4714C31.9725 34 34 31.9725 34 29.4714V4.52861C34 2.02753 31.9725 0 29.4714 0Z" fill="#BA3737"/>
<path d="M23.3795 5.68945H22.2933C22.0497 7.81918 20.8521 8.97707 18.7725 9.21507V10.2993C20.9126 10.5467 22.0695 11.7424 22.3009 13.8258H23.3823C23.6193 11.7037 24.799 10.5326 26.9164 10.2917V9.2094C24.7895 8.96384 23.6288 7.78895 23.3795 5.68945Z" fill="white"/>
<path d="M22.2699 21.439V24.5726H13.6944C13.4156 24.5728 13.1394 24.5179 12.8818 24.4113C12.6241 24.3046 12.39 24.1482 12.1929 23.9511C11.9957 23.7539 11.8393 23.5198 11.7326 23.2622C11.626 23.0045 11.5712 22.7284 11.5713 22.4495V6.80008H14.6672C14.9678 6.80008 15.256 6.68068 15.4686 6.46814C15.6811 6.25559 15.8005 5.96733 15.8005 5.66675H11.5505C10.3887 5.67274 9.27651 6.13847 8.45711 6.96213C7.6377 7.78579 7.17772 8.90036 7.17773 10.0622V28.4014H19.5783C20.5796 28.4006 21.5408 28.0074 22.2555 27.3061C22.9702 26.6047 23.3816 25.6512 23.4014 24.6501V20.3056C23.1011 20.3061 22.8134 20.4258 22.6012 20.6382C22.3891 20.8507 22.2699 21.1387 22.2699 21.439Z" fill="white"/>
</svg>
