<svg width="133" height="34" viewBox="0 0 133 34" fill="none" xmlns="http://www.w3.org/2000/svg">
<path d="M27.2044 0H4.18026C1.87156 0 0 1.87156 0 4.18026V27.2044C0 29.5131 1.87156 31.3846 4.18026 31.3846H27.2044C29.5131 31.3846 31.3846 29.5131 31.3846 27.2044V4.18026C31.3846 1.87156 29.5131 0 27.2044 0Z" fill="#BA3737"/>
<path d="M21.581 5.25171H20.5784C20.3535 7.21761 19.2481 8.28643 17.3284 8.50612V9.50694C19.3039 9.73535 20.3718 10.839 20.5854 12.7622H21.5836C21.8024 10.8033 22.8913 9.72228 24.8459 9.49997V8.50089C22.8826 8.27422 21.8111 7.18971 21.581 5.25171Z" fill="white"/>
<path d="M20.5568 19.7894V22.6821H12.6409C12.3835 22.6822 12.1286 22.6316 11.8908 22.5331C11.6529 22.4347 11.4368 22.2903 11.2548 22.1083C11.0728 21.9263 10.9285 21.7102 10.83 21.4724C10.7316 21.2346 10.681 20.9797 10.6811 20.7223V6.27662H13.5388C13.8163 6.27662 14.0824 6.1664 14.2786 5.97021C14.4747 5.77402 14.585 5.50793 14.585 5.23047H10.6619C9.58945 5.236 8.56282 5.66591 7.80645 6.42621C7.05007 7.18651 6.62547 8.21535 6.62549 9.2878V26.2163H18.0721C18.9965 26.2156 19.8837 25.8526 20.5434 25.2052C21.2032 24.5579 21.5829 23.6777 21.6012 22.7535V18.7433C21.324 18.7438 21.0584 18.8542 20.8626 19.0503C20.6667 19.2465 20.5568 19.5123 20.5568 19.7894Z" fill="white"/>
<g clip-path="url(#clip0_11524_2139)">
<path d="M80.3768 28.0298H75.7772V25.1426H75.1348C74.7114 26.201 74.4204 27.0074 73.5663 27.5768C72.7122 28.1462 71.6009 28.4235 70.2314 28.4235C69.3384 28.4364 68.4508 28.2842 67.613 27.9748C66.863 27.6935 66.1856 27.2476 65.6307 26.6698C65.0682 26.068 64.6403 25.3533 64.3755 24.5732C64.0692 23.6715 63.9199 22.7239 63.9342 21.7717V18.8909C63.9342 17.6319 64.4343 16.4246 65.3244 15.5344C66.2146 14.6442 67.422 14.1441 68.6809 14.1441V20.543C68.6809 23.0442 69.7848 24.2945 71.9925 24.2938C73.1779 24.2938 74.0803 23.9488 74.6998 23.2587C75.3193 22.5687 75.6294 21.6197 75.6301 20.4117V10.0398H80.3768V28.0298Z" fill="#BA3737"/>
<path d="M89.4217 10.0377V12.9249H90.0567C90.4694 11.9036 90.7827 11.1014 91.6802 10.5193C92.5777 9.93717 93.6911 9.64612 95.032 9.64612C97.0337 9.64612 98.5588 10.2335 99.6073 11.4083C100.656 12.5831 101.181 14.2468 101.182 16.3995V28.0298H96.4365V17.5246C96.4365 16.2743 96.1673 15.3309 95.6289 14.6945C95.0906 14.0581 94.2559 13.7406 93.1249 13.742C92.6173 13.7332 92.1132 13.8275 91.6432 14.0193C91.2173 14.198 90.8359 14.4679 90.5255 14.8099C90.2058 15.1699 89.964 15.5923 89.8154 16.0503C89.6469 16.5689 89.5644 17.1116 89.5709 17.6568V28.0288H84.822V14.6373C84.822 13.4174 85.3066 12.2475 86.1692 11.3849C87.0318 10.5223 88.2018 10.0377 89.4217 10.0377Z" fill="#BA3737"/>
<path d="M110.562 10.0376V28.0297H105.816V14.7865C105.815 14.1629 105.938 13.5455 106.176 12.9693C106.415 12.3932 106.764 11.8696 107.205 11.4286C107.646 10.9876 108.169 10.6378 108.745 10.3991C109.321 10.1604 109.939 10.0376 110.562 10.0376Z" fill="#BA3737"/>
<path d="M121.833 9.74447C122.423 9.74185 123.01 9.81874 123.579 9.97307C124.118 10.1186 124.633 10.338 125.112 10.625C125.579 10.9076 125.989 11.1881 126.368 11.6442C126.666 12.003 126.833 12.4581 126.964 12.9873H127.573V10.0376H132.189V34H127.426V25.2727H126.815C126.326 26.2411 125.941 26.9883 125.028 27.5154C124.115 28.0425 123.017 28.307 121.733 28.307C120.684 28.3247 119.644 28.1043 118.692 27.6625C117.797 27.235 117.014 26.6036 116.408 25.8188C115.782 25.0194 115.303 24.0436 114.973 22.8914C114.626 21.6271 114.458 20.3203 114.475 19.0094C114.458 17.7054 114.631 16.4059 114.988 15.1516C115.335 14.0044 115.826 13.031 116.461 12.2316C117.08 11.4463 117.873 10.8155 118.777 10.389C119.735 9.94869 120.779 9.72845 121.833 9.74447ZM123.383 24.3435C123.975 24.3519 124.56 24.2264 125.096 23.9762C125.605 23.7329 126.049 23.3724 126.392 22.9242C126.766 22.4257 127.043 21.8613 127.208 21.2605C127.407 20.5368 127.503 19.7885 127.493 19.0379C127.502 18.2913 127.406 17.547 127.208 16.827C127.043 16.2213 126.766 15.6517 126.392 15.1474C126.053 14.6976 125.611 14.3348 125.104 14.089C124.571 13.8406 123.988 13.7172 123.399 13.7281C122.814 13.7189 122.235 13.8445 121.706 14.0954C121.206 14.3412 120.77 14.7016 120.436 15.1474C120.067 15.6453 119.796 16.2083 119.636 16.8069C119.441 17.5314 119.348 18.2794 119.358 19.0295C119.348 19.7848 119.442 20.5379 119.636 21.2679C119.793 21.8695 120.061 22.4366 120.426 22.9401C120.757 23.3874 121.194 23.7461 121.696 23.9847C122.225 24.2293 122.801 24.3519 123.383 24.3435Z" fill="#BA3737"/>
<path d="M63.9659 6.58526V7.80131C61.5984 8.07119 60.2712 9.38885 60.0066 11.7617H58.7969C58.5376 9.42695 57.2411 8.08707 54.8418 7.80978V6.59161C57.1702 6.3249 58.5154 5.02735 58.7874 2.64075H60.0055C60.2849 4.99348 61.5857 6.31008 63.9659 6.58526Z" fill="#BA3737"/>
<path d="M58.762 20.29V23.8016H49.1489C48.5182 23.8011 47.9136 23.5501 47.4679 23.104C47.0222 22.6579 46.7718 22.0531 46.7718 21.4224V3.88539H50.2422C50.579 3.88539 50.902 3.75158 51.1402 3.5134C51.3784 3.27523 51.5122 2.95219 51.5122 2.61536H46.7496C45.447 2.62096 44.1997 3.14241 43.2807 4.06556C42.3617 4.98872 41.8459 6.23837 41.8462 7.54097V28.0922H55.7425C56.8651 28.0919 57.9428 27.6515 58.7444 26.8656C59.5459 26.0796 60.0074 25.0108 60.0299 23.8884V19.0199C59.6934 19.0205 59.3709 19.1546 59.1332 19.3927C58.8955 19.6308 58.762 19.9535 58.762 20.29Z" fill="#BA3737"/>
</g>
<defs>
<clipPath id="clip0_11524_2139">
<rect width="90.3448" height="31.3846" fill="white" transform="translate(41.8462 2.61536)"/>
</clipPath>
</defs>
</svg>
