<svg width="18" height="21" viewBox="0 0 18 21" fill="none" xmlns="http://www.w3.org/2000/svg">
<path d="M15.1562 4.60156C15.1562 4.48438 15.0781 4.44531 14.9609 4.44531C14.8828 4.44531 13.5156 4.40625 13.5156 4.40625C13.5156 4.40625 12.6953 3.58594 12.3828 3.27344V20.1875L17.2656 18.9375C17.2656 18.9375 15.1562 4.67969 15.1562 4.60156ZM11.25 3.27344C11.1719 3.03906 11.0938 2.80469 10.9766 2.57031C10.5859 1.78906 9.96094 1.35938 9.25781 1.35938C9.21875 1.35938 9.21875 1.35938 9.21875 1.35938C9.17969 1.35938 9.14062 1.39844 9.10156 1.39844C9.0625 1.35938 9.02344 1.35938 9.02344 1.32031C8.71094 0.96875 8.32031 0.8125 7.8125 0.8125C6.875 0.851562 5.9375 1.51562 5.19531 2.72656C4.64844 3.58594 4.25781 4.64062 4.14062 5.46094C3.04688 5.8125 2.30469 6.04688 2.30469 6.04688C1.75781 6.24219 1.71875 6.24219 1.67969 6.75C1.64062 7.14062 0.195312 18.1562 0.195312 18.1562L11.9922 20.1875V3.07812C11.9531 3.07812 11.875 3.07812 11.8359 3.11719C11.7969 3.11719 11.6016 3.15625 11.25 3.27344ZM9.10156 3.9375C8.47656 4.13281 7.77344 4.36719 7.10938 4.5625C7.30469 3.82031 7.65625 3.07812 8.125 2.60938C8.28125 2.41406 8.51562 2.21875 8.78906 2.10156C9.0625 2.64844 9.10156 3.42969 9.10156 3.9375ZM7.8125 1.47656H7.85156C8.04688 1.47656 8.24219 1.51562 8.39844 1.59375C8.125 1.75 7.89062 1.94531 7.65625 2.17969C7.03125 2.80469 6.60156 3.82031 6.40625 4.75781C5.85938 4.95312 5.27344 5.10938 4.76562 5.26562C5.11719 3.78125 6.36719 1.51562 7.8125 1.47656ZM6.01562 10.0703C6.05469 11.0859 8.71094 11.2812 8.86719 13.6641C8.98438 15.5 7.89062 16.7891 6.28906 16.8672C4.375 16.9844 3.35938 15.8906 3.35938 15.8906L3.75 14.1719C3.75 14.1719 4.80469 14.9531 5.625 14.875C6.17188 14.875 6.40625 14.4062 6.36719 14.0938C6.28906 12.7656 4.14062 12.8438 3.98438 10.6953C3.86719 8.89844 5.07812 7.0625 7.69531 6.86719C8.71094 6.82812 9.21875 7.0625 9.21875 7.0625L8.63281 9.32812C8.63281 9.32812 7.96875 9.01562 7.14844 9.05469C6.01562 9.13281 5.97656 9.875 6.01562 10.0703ZM9.72656 3.74219C9.72656 3.27344 9.64844 2.60938 9.45312 2.0625C10.1562 2.17969 10.5078 3 10.6641 3.46875C10.3906 3.54688 10.0781 3.66406 9.72656 3.74219Z" fill="#2EC667"/>
</svg>
